<?xml version="1.0" standalone="no"?>
<!DOCTYPE svg PUBLIC "-//W3C//DTD SVG 20010904//EN"
 "http://www.w3.org/TR/2001/REC-SVG-20010904/DTD/svg10.dtd">
<svg version="1.0" xmlns="http://www.w3.org/2000/svg"
 width="300.000000pt" height="300.000000pt" viewBox="0 0 300.000000 300.000000"
 preserveAspectRatio="xMidYMid meet">
<metadata>
Created by potrace 1.10, written by Peter Selinger 2001-2011
</metadata>
<g transform="translate(0.000000,300.000000) scale(0.100000,-0.100000)"
fill="#000000" stroke="none">
<path d="M1344 2536 c-301 -57 -520 -203 -690 -457 -102 -152 -164 -348 -166
-525 -1 -135 7 -186 35 -212 42 -38 57 -35 142 26 149 106 294 169 459 198
107 19 105 19 67 -20 -27 -28 -35 -45 -39 -85 l-4 -50 -52 -17 c-28 -9 -58
-19 -66 -22 -8 -3 0 11 18 32 18 21 31 40 28 43 -5 6 -226 -199 -221 -205 1
-1 41 7 89 18 122 28 125 27 80 -23 -22 -23 -61 -71 -88 -107 -27 -36 -53 -69
-58 -75 -5 -5 -6 23 -2 65 4 41 5 73 2 70 -3 -3 -44 -56 -91 -117 l-85 -113
-48 82 -47 82 142 139 c79 77 137 138 129 135 -7 -3 -72 -24 -145 -47 -151
-47 -179 -67 -85 -58 34 3 62 1 62 -3 0 -4 -27 -36 -60 -71 -76 -80 -81 -98
-45 -163 81 -148 107 -151 202 -21 19 26 24 28 40 17 10 -7 26 -15 37 -19 20
-6 20 1 0 -225 -4 -37 -3 -75 1 -85 5 -10 9 -20 10 -23 1 -3 14 -31 29 -63 38
-77 79 -111 124 -103 25 4 41 0 58 -13 16 -13 49 -21 97 -26 199 -18 245 -25
310 -52 78 -32 111 -26 171 30 35 33 46 51 46 74 0 22 7 33 26 43 14 8 30 22
35 32 15 27 36 22 70 -17 42 -47 58 -50 125 -20 95 42 192 113 291 211 96 97
137 159 128 196 -4 18 3 29 33 49 30 21 43 41 69 110 57 153 72 247 66 412 -8
245 -125 520 -279 656 l-46 40 22 66 c15 44 19 70 12 77 -12 12 -73 -127 -209
-477 -58 -148 -109 -280 -114 -293 l-9 -23 110 3 c61 2 109 0 108 -4 -2 -3
-59 -66 -128 -139 l-124 -132 62 5 62 4 -67 -70 c-37 -39 -113 -119 -169 -177
l-102 -106 -31 40 c-17 23 -31 43 -31 46 0 4 38 76 85 160 47 85 85 156 85
158 0 2 -40 3 -90 3 -49 0 -90 3 -90 7 0 3 6 14 14 22 31 36 470 730 574 908
23 39 42 76 42 82 0 19 -25 1 -50 -36 -43 -63 -48 -66 -77 -43 -14 11 -31 20
-38 20 -6 0 -18 11 -25 25 -13 25 -141 95 -173 95 -7 0 -17 4 -23 9 -5 6 -20
12 -34 15 -14 2 -52 12 -85 21 -81 23 -315 29 -411 11z m451 -60 c131 -40 259
-101 251 -122 -3 -9 -9 -27 -12 -40 -4 -14 -9 -24 -13 -22 -3 2 -44 22 -92 45
-120 60 -219 84 -369 90 -271 11 -504 -80 -686 -269 -176 -181 -256 -375 -260
-628 l-3 -135 -33 -23 -33 -22 -8 22 c-13 34 -11 254 2 323 79 394 369 700
746 788 108 25 111 26 270 23 129 -3 163 -7 240 -30z m-38 -114 c39 -11 106
-36 150 -57 43 -20 93 -39 112 -42 18 -3 43 -16 56 -29 l23 -22 -26 -44 c-14
-24 -41 -64 -59 -90 -18 -26 -33 -51 -33 -54 0 -3 -24 -43 -53 -87 -29 -45
-76 -117 -103 -160 -27 -43 -82 -128 -122 -189 -75 -115 -102 -160 -102 -176
0 -5 8 -19 19 -30 14 -17 30 -22 70 -22 28 0 51 -2 51 -5 0 -3 -19 -41 -42
-83 -23 -42 -52 -99 -65 -126 l-24 -48 -22 20 c-12 12 -40 28 -61 37 -41 17
-40 11 -14 95 7 19 12 76 12 125 1 78 4 94 24 119 12 16 22 32 22 35 0 29 -62
52 -175 67 -16 2 -45 6 -63 9 -18 4 -49 1 -69 -6 -25 -8 -38 -8 -46 0 -19 19
-151 8 -212 -19 -11 -5 -33 -11 -48 -15 -41 -8 -187 -79 -245 -119 -56 -38
-62 -34 -62 34 0 36 1 38 33 36 26 -1 32 3 32 19 0 16 -6 20 -33 17 l-33 -2 3
42 3 43 184 2 c181 1 184 2 208 26 l25 24 -27 27 c-16 16 -37 26 -54 26 -37 0
-91 19 -116 40 -36 32 -77 34 -119 5 -51 -34 -68 -33 -62 5 7 49 81 190 135
259 50 63 50 64 60 38 12 -32 52 -60 74 -51 9 3 22 16 31 28 14 21 13 25 -14
55 -33 35 -45 38 -59 14 -5 -10 -12 -15 -15 -13 -19 19 188 178 254 195 3 1
16 6 30 12 42 18 162 51 200 56 80 11 296 -2 367 -21z m364 -45 c15 -12 14
-16 -12 -47 -30 -37 -35 -31 -23 29 7 34 11 36 35 18z m248 -248 c65 -96 112
-201 144 -322 30 -115 30 -346 -1 -459 -25 -93 -76 -221 -88 -224 -5 -2 -20
11 -33 28 -22 28 -23 33 -12 62 14 32 53 160 65 209 l6 27 -140 0 c-77 0 -140
4 -140 9 0 15 28 33 47 30 25 -3 50 9 79 37 12 13 29 24 36 24 21 0 58 -30 58
-46 0 -9 6 -14 13 -11 6 2 19 1 28 -4 35 -18 32 175 -6 322 -29 114 -110 267
-186 356 -27 32 -28 33 -12 73 l16 41 34 -33 c19 -18 61 -71 92 -119z m-1407
3 c-15 -15 -19 -15 -33 -2 -14 14 -14 16 0 31 14 15 18 15 33 2 15 -14 15 -16
0 -31z m1282 -37 c104 -145 160 -301 168 -465 3 -60 2 -65 -17 -62 -11 2 -35
6 -53 9 -25 4 -42 -1 -71 -21 -21 -15 -51 -30 -67 -35 -15 -4 -37 -20 -48 -35
l-21 -28 28 -24 c15 -13 35 -24 44 -24 14 0 14 -2 -1 -19 -15 -16 -22 -18 -48
-9 -28 10 -34 8 -55 -16 -13 -15 -23 -39 -23 -53 0 -14 -13 -41 -30 -60 -23
-26 -29 -40 -24 -59 9 -36 -32 -74 -79 -74 -38 0 -88 -33 -152 -99 -45 -47
-50 -49 -65 -21 -10 18 4 35 121 153 126 127 209 220 209 236 0 5 -9 18 -20
31 -19 22 -19 23 1 51 11 16 24 31 30 34 5 4 36 37 69 75 52 61 61 68 74 55
19 -20 29 -19 50 3 15 18 15 20 -4 37 -16 15 -25 16 -44 7 -20 -9 -27 -7 -41
8 -13 14 -34 20 -84 22 -64 3 -66 4 -64 28 2 37 152 420 164 420 4 0 28 -29
53 -65z m-1386 -290 c11 -14 28 -25 39 -25 10 0 28 -7 40 -15 14 -10 24 -12
28 -5 14 22 75 4 75 -22 0 -4 -83 -8 -185 -8 -102 0 -185 4 -185 8 0 18 40 44
60 39 11 -3 20 -1 20 4 0 18 41 49 64 49 14 0 33 -11 44 -25z m459 -186 c-27
-14 -44 -33 -58 -65 -14 -30 -26 -44 -39 -44 -24 0 -25 11 -6 48 26 51 69 80
116 81 22 0 21 -2 -13 -20z m181 -13 c43 -1 47 -3 34 -22 -16 -24 -50 -34 -89
-25 -21 5 -32 9 -25 10 6 1 12 5 12 11 0 5 -23 12 -51 16 -35 5 -46 10 -37 16
7 5 36 6 63 2 28 -3 69 -7 93 -8z m-62 -92 c40 5 43 4 47 -22 11 -60 -7 -217
-25 -228 -16 -10 -85 -6 -110 7 -13 6 -37 22 -55 35 l-32 24 21 35 c11 20 18
44 15 53 -2 10 2 27 9 37 8 10 14 33 14 51 l0 33 37 -16 c24 -10 52 -13 79 -9z
m-190 -69 c15 -23 15 -27 0 -50 -28 -43 -76 -27 -76 25 0 52 48 68 76 25z
m-88 -75 c17 -21 32 -42 32 -47 -1 -23 -54 -68 -106 -90 -33 -13 -66 -27 -74
-31 -12 -5 -11 -1 2 18 10 14 30 44 44 68 25 40 25 44 9 62 -9 10 -28 21 -42
25 -45 11 -3 32 67 34 29 0 40 -6 68 -39z m1229 24 c11 -30 -40 -174 -63 -174
-7 0 -18 9 -24 19 -8 16 -3 30 25 72 19 30 35 64 35 76 0 26 18 31 27 7z m-80
-51 c-16 -32 -32 -60 -34 -62 -4 -5 -62 60 -63 70 0 4 105 47 122 48 3 1 -8
-25 -25 -56z m-62 -98 c53 -60 109 -120 124 -132 l26 -23 -56 0 c-48 0 -59 4
-82 28 -16 17 -25 35 -22 44 4 9 -18 41 -60 85 -61 67 -65 73 -53 97 6 15 15
23 18 19 4 -5 51 -57 105 -118z m-1004 41 c21 -27 113 -76 141 -76 14 0 18 -8
18 -35 0 -41 -5 -43 -30 -12 l-18 22 -29 -27 -29 -28 -30 33 c-77 84 -75 80
-62 115 7 18 14 32 16 32 2 0 13 -11 23 -24z m879 -34 c0 -14 -56 -63 -63 -55
-4 3 5 19 20 35 27 28 43 35 43 20z m25 -62 c-13 -15 -15 -24 -8 -31 8 -8 14
-5 22 10 7 12 16 21 21 21 18 0 10 -26 -16 -51 l-26 -24 -24 29 -25 29 27 28
c33 34 60 23 29 -11z m-950 -32 c28 -34 55 -68 62 -77 10 -14 13 -14 31 2 17
16 20 16 32 2 11 -13 11 -22 -2 -49 -15 -31 -15 -35 19 -107 l35 -74 19 68
c19 67 19 68 -1 107 -17 34 -19 70 -2 70 3 0 16 -9 28 -21 l22 -20 7 70 c4 39
10 71 13 71 4 0 26 -7 49 -16 35 -14 59 -38 132 -129 l89 -113 -33 -32 -33
-32 -29 31 c-19 19 -35 51 -43 86 -7 31 -16 58 -20 60 -4 2 -12 -53 -19 -123
-16 -174 -22 -203 -38 -209 -7 -3 -84 20 -171 51 l-159 57 -23 82 c-35 124
-39 123 -40 -7 0 -86 -4 -124 -14 -135 -7 -9 -23 -46 -36 -83 -12 -38 -25 -68
-28 -68 -29 2 -58 36 -89 104 l-35 78 12 136 c8 92 17 147 29 167 11 20 44 44
96 72 44 23 82 42 85 43 3 0 28 -28 55 -62z m889 -35 l23 -27 -31 -21 c-28
-20 -33 -21 -48 -7 -10 8 -18 19 -18 23 0 7 40 55 48 58 2 1 13 -11 26 -26z
m241 -74 c30 1 55 -1 55 -6 0 -5 -29 -46 -65 -91 -78 -98 -198 -196 -316 -257
l-87 -45 -30 47 -30 47 94 89 c52 49 94 94 94 100 0 41 23 89 47 98 32 12 54
5 94 -28 23 -19 33 -23 42 -14 8 8 1 21 -28 51 -38 39 -38 40 -20 60 l19 21
38 -38 c35 -34 41 -37 93 -34z m-333 7 c25 -30 26 -35 16 -75 l-11 -43 -71 4
-71 3 -91 -87 c-50 -49 -94 -88 -97 -88 -4 0 -11 10 -18 21 -10 19 -4 29 57
91 108 110 222 208 242 207 9 0 29 -15 44 -33z m-159 -286 c-69 -66 -131 -120
-137 -120 -7 0 -18 6 -25 13 -10 10 10 33 101 119 101 96 117 107 150 108 l37
0 -126 -120z m-217 96 c3 -8 0 -24 -6 -36 -10 -18 -7 -28 14 -59 14 -20 26
-40 26 -43 0 -3 -16 0 -35 6 -31 10 -40 22 -36 48 0 4 2 28 3 53 1 31 6 45 15
45 7 0 16 -6 19 -14z m-106 -187 c24 13 55 21 86 21 l49 0 -25 -20 c-28 -22
-28 -21 43 -62 20 -12 37 -24 37 -27 -1 -3 -25 -23 -55 -43 l-54 -38 -66 30
c-57 26 -90 32 -238 46 -95 9 -173 18 -175 19 -2 2 25 83 46 137 l11 26 151
-55 152 -56 38 22z"/>
<path d="M1581 2326 c-26 -27 -23 -52 9 -81 19 -17 19 -18 -5 -47 -31 -37 -31
-42 1 -67 24 -19 40 -21 180 -21 147 0 154 1 181 24 25 22 27 26 14 49 -8 15
-28 33 -45 41 -17 9 -44 24 -61 36 -40 27 -64 25 -111 -6 -40 -27 -114 -45
-114 -27 0 6 9 18 20 28 26 24 25 41 -5 70 -30 31 -36 31 -64 1z m50 -55 c-15
-15 -18 -14 -33 2 -17 16 -17 18 0 35 16 17 18 17 33 -2 14 -18 14 -21 0 -35z
m223 -56 c13 -14 32 -25 43 -25 21 0 50 -26 41 -35 -3 -3 -86 -4 -184 -3 -177
3 -179 3 -152 21 22 15 31 16 48 7 16 -9 25 -9 33 -1 6 6 24 11 39 11 15 0 28
4 28 9 0 18 32 41 56 41 14 0 35 -11 48 -25z"/>
<path d="M1216 2311 c-19 -21 -15 -53 10 -82 16 -18 9 -49 -11 -49 -25 0 -82
-65 -100 -115 -10 -27 -20 -51 -21 -53 -1 -2 -15 3 -31 11 -24 13 -33 13 -61
2 -31 -14 -38 -28 -26 -59 8 -21 81 -41 98 -27 9 8 16 4 26 -14 16 -30 9 -40
-17 -26 -15 7 -26 5 -48 -9 -38 -25 -47 -50 -27 -72 22 -26 58 -22 90 11 l27
29 43 -40 43 -39 -26 -30 c-28 -34 -31 -55 -11 -81 18 -24 41 -23 66 4 24 27
26 61 3 84 -16 16 -16 16 2 11 11 -3 37 -8 58 -12 40 -6 46 -15 22 -35 -22
-18 -18 -55 9 -87 l24 -28 26 24 c31 29 32 36 6 84 l-21 38 45 20 c56 25 112
89 130 150 12 40 12 57 2 102 -26 112 -101 176 -221 189 -27 3 -30 6 -27 35 4
37 -23 83 -48 83 -9 0 -25 -9 -34 -19z m50 -36 c12 -48 -16 -45 -31 3 -5 16
-2 22 9 22 9 0 18 -11 22 -25z m171 -142 c54 -43 77 -88 77 -148 0 -96 -67
-177 -158 -190 -175 -27 -291 177 -176 309 45 51 85 67 157 63 52 -2 69 -8
100 -34z m-383 -139 c29 -11 16 -24 -24 -24 -38 0 -49 8 -33 23 8 9 36 9 57 1z
m36 -134 c0 -16 -58 -41 -65 -29 -4 6 -5 12 -4 13 45 34 69 39 69 16z m140
-129 c0 -5 -5 -22 -10 -37 -8 -20 -14 -24 -22 -16 -9 9 -9 18 0 37 11 24 32
35 32 16z m143 -43 c6 -42 -15 -58 -25 -20 -5 15 -6 33 -3 40 8 23 23 12 28
-20z"/>
<path d="M1405 2286 c-18 -32 -18 -36 -2 -60 22 -33 40 -33 66 0 36 45 23 94
-24 94 -15 0 -28 -12 -40 -34z m56 1 c-2 -29 -15 -57 -27 -57 -17 0 -17 10 -4
45 9 23 33 32 31 12z"/>
<path d="M1072 2224 c-29 -20 -28 -47 3 -79 31 -30 46 -31 71 -4 17 18 17 23
4 46 -8 14 -24 32 -35 39 -18 12 -24 11 -43 -2z m42 -33 c27 -30 9 -47 -20
-20 -13 12 -21 26 -18 30 8 14 19 11 38 -10z"/>
<path d="M1600 2003 l-22 -28 27 -22 c32 -28 66 -29 88 -5 22 24 21 45 -1 65
-28 26 -67 21 -92 -10z m88 -20 c2 -9 -9 -13 -37 -13 -44 0 -56 16 -18 23 33
7 50 3 55 -10z"/>
<path d="M1788 1991 c-23 -23 -23 -44 2 -66 17 -15 24 -16 45 -7 30 14 33 51
7 75 -23 21 -32 21 -54 -2z m40 -48 c-8 -10 -13 -9 -25 2 -11 12 -12 17 -1 29
11 11 15 11 25 -3 8 -11 8 -20 1 -28z"/>
<path d="M875 1935 c-31 -31 -31 -40 1 -70 28 -26 44 -24 77 13 17 19 17 21
-8 51 -32 37 -39 38 -70 6z m45 -55 c-11 -11 -20 -15 -20 -9 0 7 -8 18 -17 25
-17 13 -17 13 0 14 9 0 17 7 17 15 0 12 4 11 20 -5 20 -20 20 -20 0 -40z"/>
<path d="M1585 1880 c-18 -19 -18 -24 -5 -47 21 -37 65 -50 91 -27 24 21 24
35 1 62 -28 32 -64 37 -87 12z m57 -26 c20 -10 27 -19 20 -26 -12 -12 -75 18
-67 32 8 13 11 13 47 -6z"/>
<path d="M1446 1771 c-22 -24 -14 -56 21 -88 29 -27 28 -27 53 -6 29 25 25 57
-11 87 -37 31 -41 32 -63 7z m56 -40 c15 -28 14 -41 -3 -41 -12 0 -40 50 -34
60 10 16 19 11 37 -19z"/>
<path d="M1618 1715 c-23 -31 -23 -37 5 -63 30 -28 42 -28 73 3 l25 25 -21 30
c-26 36 -58 38 -82 5z m56 -46 c-15 -16 -17 -16 -32 -1 -15 15 -15 19 -2 33
13 14 17 14 33 1 16 -14 16 -17 1 -33z"/>
<path d="M2182 1954 c-27 -19 -28 -36 -2 -59 19 -17 21 -17 40 0 25 22 25 37
2 58 -16 15 -20 15 -40 1z"/>
<path d="M2243 1803 c-13 -8 -23 -24 -23 -35 0 -20 36 -57 56 -58 6 0 21 11
34 25 l24 25 -21 28 c-24 33 -41 36 -70 15z m47 -53 c-11 -12 -17 -13 -25 -4
-5 6 -17 14 -25 17 -12 4 -12 6 1 6 9 1 19 8 23 16 5 13 8 13 23 -2 16 -16 16
-20 3 -33z"/>
<path d="M1920 944 c-43 -45 -44 -46 -12 -28 41 23 65 49 60 64 -2 6 -23 -10
-48 -36z"/>
</g>
</svg>
